<svg xmlns="http://www.w3.org/2000/svg" width="3000" height="2000"><path d="m1104.218 351.839 2.505-.015c2.736-.015 5.471-.022 8.207-.027l5.734-.017c4.013-.01 8.026-.017 12.04-.02 5.107-.006 10.215-.03 15.323-.058 3.954-.019 7.907-.024 11.86-.026 1.881-.003 3.762-.01 5.643-.024 29.706-.194 29.706-.194 38.974 8.809 11.636 12.423 14.925 31.505 18.91 47.559.41 1.633.82 3.266 1.232 4.899.875 3.477 1.746 6.955 2.615 10.434 2.114 8.466 4.246 16.927 6.376 25.389l2.185 8.688c2.855 11.353 5.735 22.7 8.658 34.035l.538 2.085 2.7 10.463c9.424 36.496 18.62 73.049 27.814 109.603 8.275 32.896 16.55 65.79 25.03 98.634 8.276 32.061 16.4 64.16 24.504 96.265 1.257 4.979 2.515 9.958 3.775 14.936 1.7 6.72 3.397 13.443 5.09 20.165a8056.82 8056.82 0 0 0 1.906 7.54c.876 3.461 1.748 6.924 2.619 10.387l.788 3.1.707 2.825.618 2.449C1341 872 1341 872 1341 875h2l.381-3.47c.555-4.418 1.48-8.685 2.52-13.01l.585-2.485c.648-2.742 1.302-5.482 1.955-8.223l1.411-5.963c1.022-4.32 2.047-8.64 3.074-12.96a21654.528 21654.528 0 0 0 6.756-28.518 1404054012.395 1404054012.395 0 0 1 3.638-15.366 35236.044 35236.044 0 0 0 13.748-58.282l4.886-20.781c3.54-15.065 7.084-30.129 10.628-45.192l.517-2.198a80505.266 80505.266 0 0 1 17.833-75.617c3.284-13.903 6.568-27.805 9.856-41.707 2.11-8.92 4.218-17.842 6.325-26.763l.515-2.178c4.506-19.077 8.986-38.16 13.422-57.254l2.378-10.224c2.14-9.201 4.278-18.402 6.397-27.608.827-3.586 1.66-7.17 2.494-10.755.374-1.61.744-3.221 1.112-4.833 7.356-32.205 7.356-32.205 16.881-41.988 12.838-7.762 26.382-7.94 40.993-7.926l4.96-.013c3.447-.007 6.894-.007 10.342-.002 4.38.006 8.758-.01 13.137-.034 3.41-.015 6.82-.016 10.23-.013 1.612 0 3.225-.005 4.838-.015 27.197-.151 27.197-.151 37.188 8.378 6.795 6.795 9.914 15.028 12.266 24.227l.645 2.492c2.939 11.45 5.627 22.963 8.339 34.468l1.824 7.715c1.468 6.205 2.933 12.41 4.397 18.617 1.722 7.301 3.448 14.603 5.173 21.904a141583.838 141583.838 0 0 1 15.332 64.951c7.291 30.901 14.577 61.803 21.858 92.707 5.713 24.24 11.43 48.48 17.147 72.72l3.802 16.123a3918424.867 3918424.867 0 0 0 6.835 28.977l.78 3.307a7140191.706 7140191.706 0 0 1 24.857 105.385c.978 4.139 1.949 8.279 2.907 12.422l.556 2.395c.344 1.481.686 2.964 1.026 4.446.841 3.67.841 3.67 2.256 7.144 2.96-11.395 5.918-22.791 8.875-34.188l.698-2.689c8.18-31.531 16.313-63.075 24.427-94.623a40745.125 40745.125 0 0 1 23.5-91c7.83-30.157 15.613-60.326 23.375-90.5a97429.962 97429.962 0 0 1 28.302-109.799l.666-2.579a9555.344 9555.344 0 0 1 5.178-19.971c1.393-5.37 2.769-10.743 4.137-16.118.968-3.8 1.945-7.6 2.922-11.397.461-1.797.918-3.595 1.371-5.393 9.208-36.51 9.208-36.51 21.12-44.458 12.061-5.928 25.082-5.598 38.195-5.586l5.418-.013c3.765-.007 7.53-.007 11.295-.002 4.814.006 9.628-.01 14.442-.034 3.721-.015 7.443-.016 11.164-.013 1.775 0 3.55-.005 5.325-.015 2.481-.013 4.961-.006 7.443.006l2.194-.023c6.356.065 10.791 1.666 15.765 5.645 4.276 5.375 4.541 11.111 4.188 17.75-.372 3.058-.934 6.057-1.55 9.074-.177.864-.352 1.729-.533 2.619-2.043 9.549-5.013 18.767-8.081 28.028-1.82 5.495-3.598 11.003-5.383 16.51l-1.127 3.464c-3.875 11.94-7.577 23.93-11.264 35.93-1.423 4.625-2.847 9.25-4.273 13.875l-1.13 3.67c-4.932 15.978-9.929 31.937-14.921 47.896l-6.456 20.642-1.629 5.208a54247.495 54247.495 0 0 0-19.204 61.549l-8.194 26.299a590675.494 590675.494 0 0 1-16.023 51.42 46710.59 46710.59 0 0 1-19.133 61.277l-.612 1.959-1.223 3.908c-4.896 15.65-9.776 31.304-14.623 46.969l-.685 2.211-5.52 17.846a14268.4 14268.4 0 0 1-24.027 76.9l-3.382 10.723-.659 2.09c-2.918 9.263-5.789 18.54-8.614 27.831l-1.918 6.28a1703.348 1703.348 0 0 0-3.363 11.156c-8.603 28.453-8.603 28.453-18.903 35.275-13.123 6.122-25.424 6.552-39.672 6.559l-4.696.01c-3.273.006-6.546.008-9.819.007-4.151 0-8.303.014-12.454.031-3.233.011-6.466.013-9.7.013-1.527 0-3.056.005-4.584.013-31.8.148-31.8.148-42.333-9.242-9.11-10.258-11.593-23.56-14.687-36.5-.548-2.244-1.097-4.487-1.647-6.73a5169.29 5169.29 0 0 1-4.856-20.096 14000.75 14000.75 0 0 0-3.583-14.884 40515.43 40515.43 0 0 1-16.408-68.356c-6.18-25.826-12.377-51.649-18.575-77.471l-3.347-13.948c-9.373-39.059-18.764-78.113-28.17-117.164-11.71-48.61-23.378-97.23-35.039-145.851-3.17 8.739-5.196 17.738-7.332 26.77l-1.285 5.387c-.92 3.857-1.837 7.715-2.752 11.573-1.466 6.18-2.938 12.359-4.41 18.538a60133.01 60133.01 0 0 0-5.387 22.626 31542.383 31542.383 0 0 1-10.089 42.275l-3.388 14.159-6.186 25.866-3.443 14.398-.686 2.867a848584.416 848584.416 0 0 1-14.077 58.863c-6.144 25.69-12.284 51.383-18.418 77.076a85114.638 85114.638 0 0 1-12.907 53.99c-3.349 13.998-6.684 28-9.999 42.007-1.536 6.492-3.08 12.983-4.625 19.473a4950.955 4950.955 0 0 0-3.552 15.031c-.716 3.041-1.441 6.08-2.168 9.118a759.25 759.25 0 0 0-.964 4.099c-1.705 7.333-3.752 14.435-6.366 21.49l-.74 2.006c-2.938 7.667-6.67 13.293-13.914 17.325-11.397 4.802-23.608 4.375-35.746 4.364l-5.303.013a3207.9 3207.9 0 0 1-11.061.002c-4.691-.006-9.382.01-14.073.034-3.645.015-7.29.016-10.936.013-1.728 0-3.456.005-5.184.015-27.698.143-27.698.143-38.009-9.378-9.655-10.63-13.515-25.975-17.555-39.438l-1.255-4.124a4532.852 4532.852 0 0 1-3.363-11.112c-1.198-3.97-2.405-7.936-3.61-11.903-2.04-6.719-4.077-13.439-6.11-20.16a22545.963 22545.963 0 0 0-9.15-30.15l-3.008-9.894-.752-2.472c-2.526-8.31-5.05-16.623-7.573-24.935a69007.219 69007.219 0 0 0-16.482-54.204c-7.66-25.159-15.31-50.32-22.955-75.483l-.756-2.49a1027862.378 1027862.378 0 0 1-23.619-77.76l-.757-2.493c-7.39-24.33-14.789-48.657-22.195-72.983-5.306-17.43-10.61-34.86-15.907-52.294l-.774-2.548a80424.007 80424.007 0 0 1-11.46-37.74l-.737-2.427a12738.039 12738.039 0 0 0-9.524-31.233c-1.374-4.485-2.744-8.972-4.115-13.46-.715-2.335-1.431-4.67-2.15-7.006-13.487-43.8-13.487-43.8-8.85-54.91 2.283-3.833 5.024-6.798 9.335-8.408 3.504-.563 7-.529 10.54-.534Z" fill="#242E3D"/><path d="m430.125 1217.625 3.345 1.908c2.194 1.252 4.387 2.508 6.576 3.768 3.702 2.13 7.418 4.232 11.142 6.324l1.872 1.055c8.266 4.644 16.595 9.171 24.932 13.687a2334.52 2334.52 0 0 1 8.883 4.856 1469.795 1469.795 0 0 0 97.05 48.372 787.007 787.007 0 0 1 9.427 4.397c87.947 41.528 179.97 75.63 389.309 136.427 2.982.74 5.961 1.495 8.94 2.249 88.688 22.413 179.183 38.086 428.399 62.332l3.197.158c66.412 3.27 133.404 3.446 199.803-.158l3.673-.199c106.494-5.83 212.547-18.94 397.327-57.801l3.283-.788A2236.961 2236.961 0 0 0 2133 1416l2.91-.852c73.095-21.439 145.198-46.494 215.4-76.095l2.772-1.164c1.685-.708 3.368-1.42 5.048-2.137 8.28-3.479 16.31-6.323 25.37-6.19l2.222.023c10.827.328 19.055 5.047 26.528 12.727 5.615 8.623 7.396 16.702 5.277 26.981-5.367 16.102-20.285 25.169-33.525 34.313-2.762 1.923-5.476 3.903-8.19 5.894-10.28 7.5-10.28 7.5-12.812 7.5v2l-1.441.742c-4.961 2.65-9.655 5.606-14.309 8.758-48.98 33.06-102.142 61.524-155.915 85.975-3.243 1.483-6.474 2.99-9.702 4.505-55.231 25.895-112.617 47.279-170.633 66.02l-2.32.751a2354.885 2354.885 0 0 1-37.743 11.882c-84.12 25.729-172.198 44.416-265.604 56.013-2.481.309-2.481.309-5.333 1.354-1.954.176-3.912.308-5.871.418-5.994.395-11.946.96-17.914 1.633l-2.685.3-5.639.633c-27.247 3.03-54.533 5.263-81.891 7.016l-2.86.187c-58.987 3.815-119.237 3.726-178.226-.003-3.126-.197-6.252-.386-9.378-.575-103.499-6.324-206.477-21.373-307.005-46.965-2.557-.65-5.116-1.297-7.675-1.944-87.193-22.071-172.33-51.513-298.63-108.203a523.634 523.634 0 0 0-6.89-3.138l-3.586-1.613-3.266-1.451C767 1500 767 1500 766 1498c-1.806-.74-1.806-.74-3.988-1.328-5.074-1.6-9.544-3.876-14.2-6.422-1.675-.9-3.35-1.798-5.027-2.695l-2.468-1.326c-3.162-1.677-6.358-3.27-9.567-4.854a757.403 757.403 0 0 1-15.063-7.688l-1.979-1.023c-4.592-2.432-4.592-2.432-5.708-4.664a284.142 284.142 0 0 0-6-2 132.473 132.473 0 0 1-5.613-2.95l-3.245-1.798-3.455-1.94-1.784-.996C675.097 1451.16 662.53 1443.624 650 1436c-2.304-1.4-4.61-2.798-6.917-4.192a876.603 876.603 0 0 1-3.76-2.284c-2.437-1.475-4.606-2.618-7.323-3.524v-2l-2.214-.831c-2.644-1.11-4.932-2.36-7.364-3.872l-2.719-1.689-2.953-1.858-3.125-1.96c-9.3-5.875-18.475-11.935-27.625-18.04l-2.057-1.372c-6.147-4.105-12.282-8.222-18.361-12.427l-2.197-1.519c-1.388-.961-2.774-1.925-4.159-2.892-2.992-2.075-5.887-4.05-9.226-5.54v-2l-1.633-.75c-2.917-1.54-5.537-3.361-8.242-5.25l-1.69-1.178a1179.04 1179.04 0 0 1-14.94-10.634c-3.137-2.272-3.137-2.272-6.495-4.188v-2l-2.074-.664c-3.758-1.716-6.579-4.08-9.739-6.711a506.544 506.544 0 0 0-16.75-13.125l-1.981-1.49c-2.885-2.153-5.778-4.223-8.78-6.213-2.962-1.99-5.152-4.273-7.676-6.797-2.389-1.98-4.818-3.902-7.254-5.824a570.725 570.725 0 0 1-8.308-6.738c-3.338-2.74-6.7-5.433-10.125-8.063-5.094-3.938-9.888-8.169-14.649-12.5-4.196-3.812-8.423-7.521-12.851-11.063-5.443-4.394-10.528-9.123-15.599-13.94-2.601-2.465-5.159-4.829-7.987-7.036-2.225-1.835-3.514-3.434-4.977-5.899l-1.234-2.035c-2.997-5.612-3.18-13.013-1.368-19.07 2.313-4.477 5.97-7.506 10.352-9.832 12.472-3.864 23.614 2.522 34.125 8.625Z" fill="#F90"/><path d="M747.568 333.934c73.997-1.73 152.102 11.038 207.432 63.691 58.147 59.66 58.075 147.44 58.23 225.095.014 7.183.035 14.366.058 21.548.038 11.71.073 23.419.105 35.128l.006 2.11c.026 9.866.05 19.733.073 29.6l.005 2.107.005 2.103c.027 11.672.061 23.344.101 35.016.023 6.513.041 13.026.05 19.539-1.252 60.486-1.252 60.486 11.367 119.129l.811 2.212c5.813 15.666 13.042 30.735 20.629 45.611.674 1.321.674 1.321 1.36 2.67l1.213 2.346c2.93 6.414 3.002 13.414 1.175 20.161-2.584 6.2-6.084 10.13-11.532 13.938l-1.953 1.397c-8.6 6.096-17.393 11.92-26.194 17.72a2441.34 2441.34 0 0 0-8.898 5.91c-1.91 1.262-3.82 2.524-5.732 3.785l-2.649 1.77c-8.855 5.8-17.974 9.82-28.73 7.855-4.957-1.259-9.179-3.698-13.5-6.375v-2l-1.822-.818c-2.18-1.183-3.401-2.248-5.026-4.096l-1.567-1.78-1.647-1.931-1.732-2.02C921.99 974.925 909.803 950.806 898 927l-1.574 2.012-2.113 2.676-2.075 2.636c-2.282 2.728-4.695 5.191-7.238 7.676l-2.613 2.648C877.098 949.99 871.739 955.142 866 960l-2.75 2.414c-50.504 44.069-115.066 65.882-181.75 65.774l-2.106-.002c-55.297-.13-108.036-15.212-148.394-54.186-.861-.81-1.722-1.62-2.61-2.453-34.655-33.364-50.578-83.125-51.671-130.246-1.057-59.347 15.49-110.635 56.935-153.924 2.948-3.017 6.073-5.72 9.346-8.377l3.156-2.664c9.696-8.08 19.979-14.93 30.844-21.336l2.1-1.238c44.399-25.727 97.02-33.468 147.588-33.137l3.824.013c19.682.079 38.96.829 58.488 3.362 1.388.17 2.776.337 4.165.504 18.024 2.177 35.876 5.102 53.71 8.496l2.575.49c13.254 2.533 26.408 5.453 39.55 8.51.047-8.582.082-17.164.104-25.746.01-3.988.024-7.976.047-11.963.246-43.766-.633-92.96-30.151-128.291l-1.906-2.523c-21.459-25.382-61.568-32.204-92.696-34.938-68.74-5.314-135.567 11.634-198.8 37.452-6.311 2.538-12.581 4.682-19.168 6.349l-2.016.513c-6.943 1.667-11.67 1.823-17.789-1.916-6.466-7.235-6.069-15.258-6.023-24.492l-.01-3.93c-.004-2.734.003-5.469.017-8.204.017-3.479.007-6.957-.01-10.435-.014-3.352-.005-6.704.003-10.056l-.019-3.744c.087-10.8 1.614-20.14 9.417-28.076 52.706-45.352 151.744-56.364 217.568-58.066ZM643 740l-2.418 1.98C620.816 758.805 610.745 782.531 608 808c-.29 5.566-.34 11.115-.312 16.688l.005 2.268c.113 27.666 6.268 53.136 25.307 74.044l1.773 1.984c18.46 19.586 46.097 26.202 72.043 27.235 36.305.926 76.566-6.87 108.184-25.219l2-1.144c9.236-5.34 17.542-11.337 25.462-18.478a267.628 267.628 0 0 1 4.624-4.026c19.194-16.664 32.055-38.723 38.164-63.29l.71-2.788c4.857-20.872 5.462-42.007 5.228-63.337-.016-2.439-.03-4.878-.042-7.318A3250.98 3250.98 0 0 0 891 727c-4.187-1.856-8.435-2.857-12.902-3.77-.778-.16-1.555-.322-2.356-.488-2.558-.527-5.118-1.042-7.68-1.554l-2.674-.537c-19.025-3.786-38.107-6.56-57.388-8.651l-3.599-.398C752.453 706.147 685.248 703.931 643 740ZM2282.225 332.815a1724.8 1724.8 0 0 0 9.326-.04c21.224-.062 41.908 1.967 62.824 5.475l2.82.467c14.776 2.456 29.369 5.242 43.805 9.283l3.633 1.008c61.568 17.202 61.568 17.202 76.676 41.058 4.405 8.246 5 16.373 4.992 25.555l.013 3.331c.005 2.316.006 4.631.002 6.947-.003 3.524.02 7.047.045 10.572.003 2.258.003 4.517.002 6.775l.028 3.164c-.048 7.668-.992 14.747-5.704 21.027-3.772 3.597-6.708 4.365-11.812 4.875-10.533-.849-19.91-4.819-29.453-9.065-30.935-13.706-62.855-22.003-96.422-26.247l-2.812-.36c-26.95-3.256-56.307-3.7-83.188.36l-2.635.375c-23.522 3.433-48.437 10.23-66.365 26.625l-1.914 1.672c-13.332 12.334-19.48 30.642-20.406 48.39-.649 20.465 4.176 38.625 17.882 54.415 7.776 8.049 16.778 13.971 26.438 19.523l3.21 1.89c35.772 20.137 77.74 30.019 116.629 42.27 10.39 3.272 20.776 6.552 31.161 9.84l2.864.906c43.682 13.83 90.09 31.687 120.136 68.094l1.86 2.164c18.805 22.492 29.617 49.326 35.14 77.836l.754 3.871c7.44 47.497-4.177 98.476-32.067 137.48-6.91 9.468-14.673 18.118-22.687 26.649l-1.762 1.926c-5.3 5.594-11.531 10.151-17.634 14.825a175.508 175.508 0 0 0-4.409 3.581C2441 981 2441 981 2439 981v2l-1.477.812c-3.576 1.977-7.142 3.967-10.675 6.02-16.38 9.512-32.93 16.943-50.848 23.168l-2.776.965c-35.962 12.254-74.41 17.278-112.287 17.222l-2.354-.001c-66.076-.138-157.724-9.325-211.583-52.186l-2.164-1.695c-8.351-7.357-10.745-18.667-11.836-29.305-.304-6.06-.288-12.125-.26-18.19.01-2.804 0-5.608-.013-8.412-.022-26.383-.022-26.383 6.273-33.398 6.175-4.573 13.688-3.964 21-3 7.7 1.683 14.935 5.108 22.145 8.203 64.76 27.745 141.322 43.728 211.855 32.797l2.68-.407c32.127-5.029 66.396-15.225 86.868-42.422 12.568-17.67 16.944-39.906 13.956-61.257-3.686-20.197-13.777-36.639-30.455-48.681-30.62-20.99-68.81-30.177-103.88-40.83a6282.997 6282.997 0 0 1-38.767-11.933 4060.653 4060.653 0 0 0-10.435-3.233c-20.476-6.31-40.703-12.993-60.155-22.05l-3.303-1.534c-13.726-6.5-26.278-14.476-38.493-23.462a155.028 155.028 0 0 0-6.29-4.332c-2.946-2.009-4.522-4.071-6.726-6.859a163.421 163.421 0 0 0-3.688-3.188c-30.656-26.478-50.045-70.389-54.129-110.155-3.406-49.432 8.81-94.439 41.319-132.411 3.073-3.507 6.261-6.89 9.498-10.246l2.191-2.348c6.353-6.633 13.49-12.144 20.809-17.652l1.708-1.302c8.918-6.769 18.303-12.351 28.193-17.586 1.846-.978 3.68-1.977 5.513-2.98 30.339-16.017 64.72-23.54 98.586-27.132l2.76-.297c10.138-.934 20.294-.89 30.465-.888Z" fill="#242E3D"/><path d="M2606.504 1193.309c9.902 11.195 9.01 31.422 8.871 45.504l-.01 2.4c-.061 14.1-1.148 27.895-3.009 41.878-.356 2.913-.602 5.82-.829 8.745-.369 4.273-1.242 8.06-2.527 12.164-.766 3.217-1.446 6.451-2.125 9.688l-.55 2.548-.52 2.463-.47 2.214c-.44 2.393-.44 2.393-.335 6.087h-2l-.25 3.602c-.763 6.794-2.803 13.241-4.75 19.773l-.605 2.051c-15.023 50.89-35.602 99.649-65.145 143.887l-1.207 1.81c-5.71 8.547-11.51 16.93-18.043 24.877l-1.295 1.594c-4.362 5.366-8.796 10.527-13.705 15.406a894.132 894.132 0 0 0-3.995 4.402c-9.596 10.628-19.768 21.019-32.005 28.598l-3 1.875c-5.504 2.064-11.322 3.115-16.938.938-3.533-2.092-5.434-3.938-6.75-7.864-1.789-12.95 6.236-27.092 11.044-38.883 45.046-107.04 45.046-107.04 63.019-220.691l.043-3.197c-.066-10.549-1.675-23.071-9.207-31.08-17.693-16.156-45.43-19.208-68.398-19.922-3.813-.176-3.813-.176-6.896-.674-4.821-.618-9.546-.683-14.401-.705l-3.111-.022c-58.89-.31-117.782 4.333-176.153 12.108-22.88 2.939-22.88 2.939-29.564-.696-3.173-2.582-4.47-4.347-5.5-8.312-.354-7.3 1.917-12.22 6.562-17.813 5.954-6.213 12.956-10.599 20.25-15.062l1.985-1.234c19.636-12.16 40.386-21.73 62.015-29.766l2.863-1.065c80.634-29.499 174.362-35.141 316.64 2.374Z" fill="#F90"/></svg>