<svg xmlns="http://www.w3.org/2000/svg" xmlns:xlink="http://www.w3.org/1999/xlink" width="6912" zoomAndPan="magnify" viewBox="0 0 5184 2592.000001" height="3456" preserveAspectRatio="xMidYMid meet" version="1.0"><defs><g/><clipPath id="d3b68b4cfe"><path d="M 239.070312 413.175781 L 2003.714844 413.175781 L 2003.714844 2177.824219 L 239.070312 2177.824219 Z M 239.070312 413.175781 " clip-rule="nonzero"/></clipPath><clipPath id="23eed98419"><path d="M 1121.394531 413.175781 C 634.101562 413.175781 239.070312 808.207031 239.070312 1295.5 C 239.070312 1782.792969 634.101562 2177.824219 1121.394531 2177.824219 C 1608.6875 2177.824219 2003.71875 1782.792969 2003.71875 1295.5 C 2003.71875 808.207031 1608.6875 413.175781 1121.394531 413.175781 Z M 1121.394531 413.175781 " clip-rule="nonzero"/></clipPath><linearGradient x1="-0.000000800985" gradientTransform="matrix(6.893151, 0, 0, 6.893151, 239.070275, 413.177095)" y1="0" x2="255.999988" gradientUnits="userSpaceOnUse" y2="0" id="85cc4b9827"><stop stop-opacity="1" stop-color="rgb(99.598694%, 51.799011%, 39.199829%)" offset="0"/><stop stop-opacity="1" stop-color="rgb(99.598694%, 51.730347%, 39.364624%)" offset="0.015625"/><stop stop-opacity="1" stop-color="rgb(99.598694%, 51.594543%, 39.69574%)" offset="0.03125"/><stop stop-opacity="1" stop-color="rgb(99.598694%, 51.45874%, 40.026855%)" offset="0.046875"/><stop stop-opacity="1" stop-color="rgb(99.598694%, 51.322937%, 40.357971%)" offset="0.0625"/><stop stop-opacity="1" stop-color="rgb(99.598694%, 51.187134%, 40.689087%)" offset="0.078125"/><stop stop-opacity="1" stop-color="rgb(99.598694%, 51.051331%, 41.020203%)" offset="0.09375"/><stop stop-opacity="1" stop-color="rgb(99.598694%, 50.915527%, 41.351318%)" offset="0.109375"/><stop stop-opacity="1" stop-color="rgb(99.598694%, 50.779724%, 41.682434%)" offset="0.125"/><stop stop-opacity="1" stop-color="rgb(99.598694%, 50.642395%, 42.01355%)" offset="0.140625"/><stop stop-opacity="1" stop-color="rgb(99.598694%, 50.506592%, 42.344666%)" offset="0.15625"/><stop stop-opacity="1" stop-color="rgb(99.598694%, 50.370789%, 42.677307%)" offset="0.171875"/><stop stop-opacity="1" stop-color="rgb(99.598694%, 50.234985%, 43.008423%)" offset="0.1875"/><stop stop-opacity="1" stop-color="rgb(99.598694%, 50.099182%, 43.339539%)" offset="0.203125"/><stop stop-opacity="1" stop-color="rgb(99.598694%, 49.963379%, 43.670654%)" offset="0.21875"/><stop stop-opacity="1" stop-color="rgb(99.598694%, 49.827576%, 44.00177%)" offset="0.234375"/><stop stop-opacity="1" stop-color="rgb(99.598694%, 49.691772%, 44.332886%)" offset="0.25"/><stop stop-opacity="1" stop-color="rgb(99.598694%, 49.555969%, 44.664001%)" offset="0.265625"/><stop stop-opacity="1" stop-color="rgb(99.598694%, 49.420166%, 44.995117%)" offset="0.28125"/><stop stop-opacity="1" stop-color="rgb(99.598694%, 49.284363%, 45.326233%)" offset="0.296875"/><stop stop-opacity="1" stop-color="rgb(99.598694%, 49.147034%, 45.657349%)" offset="0.3125"/><stop stop-opacity="1" stop-color="rgb(99.598694%, 49.01123%, 45.988464%)" offset="0.328125"/><stop stop-opacity="1" stop-color="rgb(99.598694%, 48.875427%, 46.321106%)" offset="0.34375"/><stop stop-opacity="1" stop-color="rgb(99.598694%, 48.739624%, 46.652222%)" offset="0.359375"/><stop stop-opacity="1" stop-color="rgb(99.598694%, 48.603821%, 46.983337%)" offset="0.375"/><stop stop-opacity="1" stop-color="rgb(99.598694%, 48.468018%, 47.314453%)" offset="0.390625"/><stop stop-opacity="1" stop-color="rgb(99.598694%, 48.332214%, 47.645569%)" offset="0.40625"/><stop stop-opacity="1" stop-color="rgb(99.598694%, 48.196411%, 47.976685%)" offset="0.421875"/><stop stop-opacity="1" stop-color="rgb(99.598694%, 48.060608%, 48.3078%)" offset="0.4375"/><stop stop-opacity="1" stop-color="rgb(99.598694%, 47.924805%, 48.638916%)" offset="0.453125"/><stop stop-opacity="1" stop-color="rgb(99.598694%, 47.789001%, 48.970032%)" offset="0.46875"/><stop stop-opacity="1" stop-color="rgb(99.598694%, 47.653198%, 49.301147%)" offset="0.484375"/><stop stop-opacity="1" stop-color="rgb(99.598694%, 47.515869%, 49.632263%)" offset="0.5"/><stop stop-opacity="1" stop-color="rgb(99.598694%, 47.380066%, 49.964905%)" offset="0.515625"/><stop stop-opacity="1" stop-color="rgb(99.598694%, 47.244263%, 50.296021%)" offset="0.53125"/><stop stop-opacity="1" stop-color="rgb(99.598694%, 47.108459%, 50.627136%)" offset="0.546875"/><stop stop-opacity="1" stop-color="rgb(99.598694%, 46.972656%, 50.958252%)" offset="0.5625"/><stop stop-opacity="1" stop-color="rgb(99.598694%, 46.836853%, 51.289368%)" offset="0.578125"/><stop stop-opacity="1" stop-color="rgb(99.598694%, 46.70105%, 51.620483%)" offset="0.59375"/><stop stop-opacity="1" stop-color="rgb(99.598694%, 46.565247%, 51.951599%)" offset="0.609375"/><stop stop-opacity="1" stop-color="rgb(99.598694%, 46.429443%, 52.282715%)" offset="0.625"/><stop stop-opacity="1" stop-color="rgb(99.598694%, 46.29364%, 52.613831%)" offset="0.640625"/><stop stop-opacity="1" stop-color="rgb(99.598694%, 46.157837%, 52.944946%)" offset="0.65625"/><stop stop-opacity="1" stop-color="rgb(99.598694%, 46.020508%, 53.276062%)" offset="0.671875"/><stop stop-opacity="1" stop-color="rgb(99.598694%, 45.884705%, 53.607178%)" offset="0.6875"/><stop stop-opacity="1" stop-color="rgb(99.598694%, 45.748901%, 53.939819%)" offset="0.703125"/><stop stop-opacity="1" stop-color="rgb(99.598694%, 45.613098%, 54.270935%)" offset="0.71875"/><stop stop-opacity="1" stop-color="rgb(99.598694%, 45.477295%, 54.602051%)" offset="0.734375"/><stop stop-opacity="1" stop-color="rgb(99.598694%, 45.341492%, 54.933167%)" offset="0.75"/><stop stop-opacity="1" stop-color="rgb(99.598694%, 45.205688%, 55.264282%)" offset="0.765625"/><stop stop-opacity="1" stop-color="rgb(99.598694%, 45.069885%, 55.595398%)" offset="0.78125"/><stop stop-opacity="1" stop-color="rgb(99.598694%, 44.934082%, 55.926514%)" offset="0.796875"/><stop stop-opacity="1" stop-color="rgb(99.598694%, 44.798279%, 56.257629%)" offset="0.8125"/><stop stop-opacity="1" stop-color="rgb(99.598694%, 44.662476%, 56.588745%)" offset="0.828125"/><stop stop-opacity="1" stop-color="rgb(99.598694%, 44.525146%, 56.919861%)" offset="0.84375"/><stop stop-opacity="1" stop-color="rgb(99.598694%, 44.389343%, 57.250977%)" offset="0.859375"/><stop stop-opacity="1" stop-color="rgb(99.598694%, 44.25354%, 57.583618%)" offset="0.875"/><stop stop-opacity="1" stop-color="rgb(99.598694%, 44.117737%, 57.914734%)" offset="0.890625"/><stop stop-opacity="1" stop-color="rgb(99.598694%, 43.981934%, 58.24585%)" offset="0.90625"/><stop stop-opacity="1" stop-color="rgb(99.598694%, 43.84613%, 58.576965%)" offset="0.921875"/><stop stop-opacity="1" stop-color="rgb(99.598694%, 43.710327%, 58.908081%)" offset="0.9375"/><stop stop-opacity="1" stop-color="rgb(99.598694%, 43.574524%, 59.239197%)" offset="0.953125"/><stop stop-opacity="1" stop-color="rgb(99.598694%, 43.438721%, 59.570312%)" offset="0.96875"/><stop stop-opacity="1" stop-color="rgb(99.598694%, 43.302917%, 59.901428%)" offset="0.984375"/><stop stop-opacity="1" stop-color="rgb(99.598694%, 43.167114%, 60.232544%)" offset="1"/></linearGradient></defs><g clip-path="url(#d3b68b4cfe)"><g clip-path="url(#23eed98419)"><path fill="url(#85cc4b9827)" d="M 239.070312 413.175781 L 239.070312 2177.824219 L 2003.714844 2177.824219 L 2003.714844 413.175781 Z M 239.070312 413.175781 " fill-rule="nonzero"/></g></g><g fill="#000000" fill-opacity="1"><g transform="translate(838.66758, 1551.482854)"><g><path d="M 110.5625 -460.203125 C 88.15625 -460.203125 69.851562 -466.800781 55.65625 -480 C 41.457031 -493.207031 34.359375 -509.519531 34.359375 -528.9375 C 34.359375 -548.863281 41.457031 -565.425781 55.65625 -578.625 C 69.851562 -591.820312 88.15625 -598.421875 110.5625 -598.421875 C 132.476562 -598.421875 150.535156 -591.820312 164.734375 -578.625 C 178.929688 -565.425781 186.03125 -548.863281 186.03125 -528.9375 C 186.03125 -509.519531 178.929688 -493.207031 164.734375 -480 C 150.535156 -466.800781 132.476562 -460.203125 110.5625 -460.203125 Z M 174.078125 -416.875 L 174.078125 0 L 46.3125 0 L 46.3125 -416.875 Z M 174.078125 -416.875 "/></g></g></g><g fill="#000000" fill-opacity="1"><g transform="translate(1059.036468, 1551.482854)"><g><path d="M 300.328125 -421.359375 C 349.140625 -421.359375 388.113281 -405.546875 417.25 -373.921875 C 446.382812 -342.296875 460.953125 -298.835938 460.953125 -243.546875 L 460.953125 0 L 333.953125 0 L 333.953125 -226.375 C 333.953125 -254.257812 326.726562 -275.921875 312.28125 -291.359375 C 297.84375 -306.804688 278.421875 -314.53125 254.015625 -314.53125 C 229.609375 -314.53125 210.179688 -306.804688 195.734375 -291.359375 C 181.296875 -275.921875 174.078125 -254.257812 174.078125 -226.375 L 174.078125 0 L 46.3125 0 L 46.3125 -416.875 L 174.078125 -416.875 L 174.078125 -361.59375 C 187.023438 -380.019531 204.453125 -394.585938 226.359375 -405.296875 C 248.273438 -416.003906 272.929688 -421.359375 300.328125 -421.359375 Z M 300.328125 -421.359375 "/></g></g></g><g fill="#000000" fill-opacity="1"><g transform="translate(1562.523406, 1551.482854)"><g><path d="M 215.90625 5.984375 C 179.550781 5.984375 147.175781 -0.238281 118.78125 -12.6875 C 90.394531 -25.144531 67.984375 -42.207031 51.546875 -63.875 C 35.109375 -85.539062 25.894531 -109.820312 23.90625 -136.71875 L 150.171875 -136.71875 C 151.660156 -122.269531 158.378906 -110.5625 170.328125 -101.59375 C 182.285156 -92.632812 196.984375 -88.15625 214.421875 -88.15625 C 230.359375 -88.15625 242.679688 -91.265625 251.390625 -97.484375 C 260.109375 -103.710938 264.46875 -111.8125 264.46875 -121.78125 C 264.46875 -133.726562 258.238281 -142.566406 245.78125 -148.296875 C 233.332031 -154.023438 213.164062 -160.375 185.28125 -167.34375 C 155.394531 -174.320312 130.488281 -181.671875 110.5625 -189.390625 C 90.644531 -197.109375 73.460938 -209.3125 59.015625 -226 C 44.578125 -242.6875 37.359375 -265.222656 37.359375 -293.609375 C 37.359375 -317.515625 43.957031 -339.300781 57.15625 -358.96875 C 70.351562 -378.644531 89.773438 -394.210938 115.421875 -405.671875 C 141.078125 -417.128906 171.582031 -422.859375 206.9375 -422.859375 C 259.238281 -422.859375 300.453125 -409.90625 330.578125 -384 C 360.710938 -358.101562 378.023438 -323.738281 382.515625 -280.90625 L 264.46875 -280.90625 C 262.476562 -295.351562 256.128906 -306.804688 245.421875 -315.265625 C 234.710938 -323.734375 220.640625 -327.96875 203.203125 -327.96875 C 188.265625 -327.96875 176.8125 -325.101562 168.84375 -319.375 C 160.875 -313.65625 156.890625 -305.8125 156.890625 -295.84375 C 156.890625 -283.894531 163.238281 -274.929688 175.9375 -268.953125 C 188.632812 -262.972656 208.429688 -257 235.328125 -251.03125 C 266.210938 -243.050781 291.363281 -235.203125 310.78125 -227.484375 C 330.207031 -219.765625 347.265625 -207.3125 361.953125 -190.125 C 376.648438 -172.945312 384.25 -149.914062 384.75 -121.03125 C 384.75 -96.625 377.898438 -74.832031 364.203125 -55.65625 C 350.503906 -36.476562 330.832031 -21.410156 305.1875 -10.453125 C 279.539062 0.503906 249.78125 5.984375 215.90625 5.984375 Z M 215.90625 5.984375 "/></g></g></g><g fill="#000000" fill-opacity="1"><g transform="translate(1979.356801, 1551.482854)"><g><path d="M 110.5625 -460.203125 C 88.15625 -460.203125 69.851562 -466.800781 55.65625 -480 C 41.457031 -493.207031 34.359375 -509.519531 34.359375 -528.9375 C 34.359375 -548.863281 41.457031 -565.425781 55.65625 -578.625 C 69.851562 -591.820312 88.15625 -598.421875 110.5625 -598.421875 C 132.476562 -598.421875 150.535156 -591.820312 164.734375 -578.625 C 178.929688 -565.425781 186.03125 -548.863281 186.03125 -528.9375 C 186.03125 -509.519531 178.929688 -493.207031 164.734375 -480 C 150.535156 -466.800781 132.476562 -460.203125 110.5625 -460.203125 Z M 174.078125 -416.875 L 174.078125 0 L 46.3125 0 L 46.3125 -416.875 Z M 174.078125 -416.875 "/></g></g></g><g fill="#000000" fill-opacity="1"><g transform="translate(2199.725689, 1551.482854)"><g><path d="M 20.921875 -209.1875 C 20.921875 -252.019531 29.015625 -289.625 45.203125 -322 C 61.390625 -354.375 83.425781 -379.273438 111.3125 -396.703125 C 139.207031 -414.140625 170.335938 -422.859375 204.703125 -422.859375 C 232.097656 -422.859375 257.125 -417.128906 279.78125 -405.671875 C 302.445312 -394.210938 320.253906 -378.773438 333.203125 -359.359375 L 333.203125 -552.84375 L 460.953125 -552.84375 L 460.953125 0 L 333.203125 0 L 333.203125 -59.765625 C 321.253906 -39.847656 304.195312 -23.910156 282.03125 -11.953125 C 259.863281 0.00390625 234.085938 5.984375 204.703125 5.984375 C 170.335938 5.984375 139.207031 -2.851562 111.3125 -20.53125 C 83.425781 -38.21875 61.390625 -63.375 45.203125 -96 C 29.015625 -128.625 20.921875 -166.351562 20.921875 -209.1875 Z M 333.203125 -208.4375 C 333.203125 -240.3125 324.359375 -265.460938 306.671875 -283.890625 C 288.992188 -302.316406 267.457031 -311.53125 242.0625 -311.53125 C 216.65625 -311.53125 195.109375 -302.441406 177.421875 -284.265625 C 159.742188 -266.085938 150.90625 -241.0625 150.90625 -209.1875 C 150.90625 -177.3125 159.742188 -152.035156 177.421875 -133.359375 C 195.109375 -114.679688 216.65625 -105.34375 242.0625 -105.34375 C 267.457031 -105.34375 288.992188 -114.554688 306.671875 -132.984375 C 324.359375 -151.410156 333.203125 -176.5625 333.203125 -208.4375 Z M 333.203125 -208.4375 "/></g></g></g><g fill="#000000" fill-opacity="1"><g transform="translate(2706.947659, 1551.482854)"><g><path d="M 439.296875 -215.15625 C 439.296875 -203.207031 438.546875 -190.757812 437.046875 -177.8125 L 147.921875 -177.8125 C 149.910156 -151.90625 158.25 -132.101562 172.9375 -118.40625 C 187.632812 -104.71875 205.691406 -97.875 227.109375 -97.875 C 258.992188 -97.875 281.160156 -111.320312 293.609375 -138.21875 L 429.578125 -138.21875 C 422.609375 -110.820312 410.03125 -86.164062 391.84375 -64.25 C 373.664062 -42.332031 350.878906 -25.144531 323.484375 -12.6875 C 296.097656 -0.238281 265.46875 5.984375 231.59375 5.984375 C 190.757812 5.984375 154.398438 -2.726562 122.515625 -20.15625 C 90.640625 -37.59375 65.738281 -62.5 47.8125 -94.875 C 29.882812 -127.25 20.921875 -165.101562 20.921875 -208.4375 C 20.921875 -251.769531 29.757812 -289.625 47.4375 -322 C 65.125 -354.375 89.90625 -379.273438 121.78125 -396.703125 C 153.65625 -414.140625 190.257812 -422.859375 231.59375 -422.859375 C 271.9375 -422.859375 307.796875 -414.390625 339.171875 -397.453125 C 370.554688 -380.515625 395.085938 -356.359375 412.765625 -324.984375 C 430.453125 -293.609375 439.296875 -257 439.296875 -215.15625 Z M 308.546875 -248.78125 C 308.546875 -270.695312 301.070312 -288.128906 286.125 -301.078125 C 271.1875 -314.023438 252.515625 -320.5 230.109375 -320.5 C 208.691406 -320.5 190.632812 -314.273438 175.9375 -301.828125 C 161.25 -289.378906 152.160156 -271.695312 148.671875 -248.78125 Z M 308.546875 -248.78125 "/></g></g></g><g fill="#000000" fill-opacity="1"><g transform="translate(3167.107826, 1551.482854)"><g><path d="M 236.078125 5.984375 C 195.234375 5.984375 158.5 -2.726562 125.875 -20.15625 C 93.257812 -37.59375 67.613281 -62.5 48.9375 -94.875 C 30.257812 -127.25 20.921875 -165.101562 20.921875 -208.4375 C 20.921875 -251.269531 30.382812 -289 49.3125 -321.625 C 68.238281 -354.25 94.132812 -379.273438 127 -396.703125 C 159.875 -414.140625 196.734375 -422.859375 237.578125 -422.859375 C 278.421875 -422.859375 315.273438 -414.140625 348.140625 -396.703125 C 381.015625 -379.273438 406.914062 -354.25 425.84375 -321.625 C 444.769531 -289 454.234375 -251.269531 454.234375 -208.4375 C 454.234375 -165.601562 444.644531 -127.875 425.46875 -95.25 C 406.289062 -62.625 380.140625 -37.59375 347.015625 -20.15625 C 313.898438 -2.726562 276.921875 5.984375 236.078125 5.984375 Z M 236.078125 -104.59375 C 260.484375 -104.59375 281.273438 -113.554688 298.453125 -131.484375 C 315.640625 -149.421875 324.234375 -175.070312 324.234375 -208.4375 C 324.234375 -241.8125 315.890625 -267.460938 299.203125 -285.390625 C 282.523438 -303.316406 261.984375 -312.28125 237.578125 -312.28125 C 212.671875 -312.28125 192 -303.4375 175.5625 -285.75 C 159.125 -268.070312 150.90625 -242.300781 150.90625 -208.4375 C 150.90625 -175.070312 159 -149.421875 175.1875 -131.484375 C 191.375 -113.554688 211.671875 -104.59375 236.078125 -104.59375 Z M 236.078125 -104.59375 "/></g></g></g><g fill="#000000" fill-opacity="1"><g transform="translate(3642.955095, 1551.482854)"><g><path d="M 174.078125 -347.40625 C 189.015625 -370.3125 207.6875 -388.363281 230.09375 -401.5625 C 252.507812 -414.757812 277.414062 -421.359375 304.8125 -421.359375 L 304.8125 -286.140625 L 269.703125 -286.140625 C 237.828125 -286.140625 213.921875 -279.289062 197.984375 -265.59375 C 182.046875 -251.894531 174.078125 -227.863281 174.078125 -193.5 L 174.078125 0 L 46.3125 0 L 46.3125 -416.875 L 174.078125 -416.875 Z M 174.078125 -347.40625 "/></g></g></g><g fill="#000000" fill-opacity="1"><g transform="translate(3962.676798, 1551.482854)"><g><path d="M 204.703125 -422.859375 C 234.085938 -422.859375 259.863281 -416.878906 282.03125 -404.921875 C 304.195312 -392.972656 321.253906 -377.285156 333.203125 -357.859375 L 333.203125 -416.875 L 460.953125 -416.875 L 460.953125 -0.75 C 460.953125 37.601562 453.359375 72.34375 438.171875 103.46875 C 422.984375 134.601562 399.820312 159.382812 368.6875 177.8125 C 337.5625 196.238281 298.835938 205.453125 252.515625 205.453125 C 190.753906 205.453125 140.695312 190.882812 102.34375 161.75 C 64 132.613281 42.085938 93.140625 36.609375 43.328125 L 162.859375 43.328125 C 166.847656 59.265625 176.3125 71.835938 191.25 81.046875 C 206.195312 90.265625 224.628906 94.875 246.546875 94.875 C 272.941406 94.875 293.984375 87.28125 309.671875 72.09375 C 325.359375 56.90625 333.203125 32.625 333.203125 -0.75 L 333.203125 -59.765625 C 320.753906 -40.335938 303.570312 -24.519531 281.65625 -12.3125 C 259.738281 -0.113281 234.085938 5.984375 204.703125 5.984375 C 170.335938 5.984375 139.207031 -2.851562 111.3125 -20.53125 C 83.425781 -38.21875 61.390625 -63.375 45.203125 -96 C 29.015625 -128.625 20.921875 -166.351562 20.921875 -209.1875 C 20.921875 -252.019531 29.015625 -289.625 45.203125 -322 C 61.390625 -354.375 83.425781 -379.273438 111.3125 -396.703125 C 139.207031 -414.140625 170.335938 -422.859375 204.703125 -422.859375 Z M 333.203125 -208.4375 C 333.203125 -240.3125 324.359375 -265.460938 306.671875 -283.890625 C 288.992188 -302.316406 267.457031 -311.53125 242.0625 -311.53125 C 216.65625 -311.53125 195.109375 -302.441406 177.421875 -284.265625 C 159.742188 -266.085938 150.90625 -241.0625 150.90625 -209.1875 C 150.90625 -177.3125 159.742188 -152.035156 177.421875 -133.359375 C 195.109375 -114.679688 216.65625 -105.34375 242.0625 -105.34375 C 267.457031 -105.34375 288.992188 -114.554688 306.671875 -132.984375 C 324.359375 -151.410156 333.203125 -176.5625 333.203125 -208.4375 Z M 333.203125 -208.4375 "/></g></g></g><g fill="#000000" fill-opacity="1"><g transform="translate(4469.898768, 1551.482854)"><g><path d="M 215.90625 5.984375 C 179.550781 5.984375 147.175781 -0.238281 118.78125 -12.6875 C 90.394531 -25.144531 67.984375 -42.207031 51.546875 -63.875 C 35.109375 -85.539062 25.894531 -109.820312 23.90625 -136.71875 L 150.171875 -136.71875 C 151.660156 -122.269531 158.378906 -110.5625 170.328125 -101.59375 C 182.285156 -92.632812 196.984375 -88.15625 214.421875 -88.15625 C 230.359375 -88.15625 242.679688 -91.265625 251.390625 -97.484375 C 260.109375 -103.710938 264.46875 -111.8125 264.46875 -121.78125 C 264.46875 -133.726562 258.238281 -142.566406 245.78125 -148.296875 C 233.332031 -154.023438 213.164062 -160.375 185.28125 -167.34375 C 155.394531 -174.320312 130.488281 -181.671875 110.5625 -189.390625 C 90.644531 -197.109375 73.460938 -209.3125 59.015625 -226 C 44.578125 -242.6875 37.359375 -265.222656 37.359375 -293.609375 C 37.359375 -317.515625 43.957031 -339.300781 57.15625 -358.96875 C 70.351562 -378.644531 89.773438 -394.210938 115.421875 -405.671875 C 141.078125 -417.128906 171.582031 -422.859375 206.9375 -422.859375 C 259.238281 -422.859375 300.453125 -409.90625 330.578125 -384 C 360.710938 -358.101562 378.023438 -323.738281 382.515625 -280.90625 L 264.46875 -280.90625 C 262.476562 -295.351562 256.128906 -306.804688 245.421875 -315.265625 C 234.710938 -323.734375 220.640625 -327.96875 203.203125 -327.96875 C 188.265625 -327.96875 176.8125 -325.101562 168.84375 -319.375 C 160.875 -313.65625 156.890625 -305.8125 156.890625 -295.84375 C 156.890625 -283.894531 163.238281 -274.929688 175.9375 -268.953125 C 188.632812 -262.972656 208.429688 -257 235.328125 -251.03125 C 266.210938 -243.050781 291.363281 -235.203125 310.78125 -227.484375 C 330.207031 -219.765625 347.265625 -207.3125 361.953125 -190.125 C 376.648438 -172.945312 384.25 -149.914062 384.75 -121.03125 C 384.75 -96.625 377.898438 -74.832031 364.203125 -55.65625 C 350.503906 -36.476562 330.832031 -21.410156 305.1875 -10.453125 C 279.539062 0.503906 249.78125 5.984375 215.90625 5.984375 Z M 215.90625 5.984375 "/></g></g></g></svg>